# xmcd CD database file
#
# Track frame offsets:
#	182
#	16332
#	36295
#	57502
#	61415
#	69722
#	97385
#	123280
#	130687
#	154217
#	178215
#	181200
#	190390
#	195817
#
# Disc length: 3040 seconds
#
# Revision: 1
# Processed by: cddbd v1.5PL3 Copyright (c) Steve Scherf et al.
# Submitted via: CDex 1.50
#
DISCID=ca0bde0e
DTITLE=Sylvie Cohen-Francois Cotinaud - Yo m'Enamori
DYEAR=1900
DGENRE=Jazz
TTITLE0=Yo m'Enamori d'un Aire
TTITLE1=Por La Tu Puerta Yo Pasi
TTITLE2=Axerico
TTITLE3=HijaMia Mi Querida
TTITLE4=Puncha Puncha
TTITLE5=Koriezdeki
TTITLE6=Mis Amigof Me Dar Esperanza
TTITLE7=Yo Anino, tu Hanina
TTITLE8=Por Que Llorax Blanca Nina
TTITLE9=Avre Tu Puerta Cerrada
TTITLE10=Tres Hermanicas Eran
TTITLE11=Paxaro d'Hermozura
TTITLE12=Morenica A Mi Me LLaman
TTITLE13=Yo m'Enamori
EXTD=
EXTT0=
EXTT1=
EXTT2=
EXTT3=
EXTT4=
EXTT5=
EXTT6=
EXTT7=
EXTT8=
EXTT9=
EXTT10=
EXTT11=
EXTT12=
EXTT13=
PLAYORDER=
